<svg xmlns="http://www.w3.org/2000/svg" viewBox="0 0 64 64" fill="none">
  <path
    class="mark"
    d="M15 52C14.4 44.5 14.1 36.4 14.1 27.9C14.1 22.7 14.3 18 14.8 13.8M15 14C20.8 11.7 27.5 11.8 31 15.1C34.2 18 34.5 22.9 32.3 26.4C29.2 31.3 22.8 31.8 15 30.4M36.5 13.8C36 18.2 35.8 23 35.8 28.2C35.8 36.6 36.1 44.4 36.7 51.5M36.6 14.3C42.7 11.5 49.3 12 53.3 15.5C57.1 18.8 58.6 24.6 57.4 31.1C56.1 38.2 52 43.9 46.1 47.3C43.2 49 40 49.8 36.9 49.2"
  />
  <style>
    .mark {
      stroke: #111;
      stroke-width: 4.8;
      stroke-linecap: round;
      stroke-linejoin: round;
      vector-effect: non-scaling-stroke;
    }

    @media (prefers-color-scheme: dark) {
      .mark {
        stroke: #fff;
      }
    }
  </style>
</svg>
